<svg width="56" height="56" viewBox="0 0 56 56" fill="none" xmlns="http://www.w3.org/2000/svg">
<g filter="url(#filter0_d_121_482)">
<rect x="8" y="8" width="40" height="40" rx="5" fill="#1565C0" fill-opacity="0.05" shape-rendering="crispEdges"/>
<rect x="8.5" y="8.5" width="39" height="39" rx="4.5" stroke="#1565C0" shape-rendering="crispEdges"/>
</g>
<path d="M37 27H33.83L36.37 24.46C36.4627 24.3675 36.5363 24.2576 36.5864 24.1366C36.6366 24.0157 36.6624 23.886 36.6624 23.755C36.6624 23.624 36.6366 23.4943 36.5864 23.3734C36.5363 23.2524 36.4627 23.1425 36.37 23.05C35.98 22.66 35.34 22.66 34.95 23.05L31 27H29V25L32.95 21.05C33.34 20.66 33.34 20.02 32.95 19.63C32.8575 19.5373 32.7476 19.4637 32.6266 19.4136C32.5057 19.3634 32.376 19.3376 32.245 19.3376C32.114 19.3376 31.9843 19.3634 31.8634 19.4136C31.7424 19.4637 31.6325 19.5373 31.54 19.63L29 22.17V19C29 18.45 28.55 18 28 18C27.45 18 27 18.45 27 19V22.17L24.46 19.63C24.3675 19.5373 24.2576 19.4637 24.1366 19.4136C24.0157 19.3634 23.886 19.3376 23.755 19.3376C23.624 19.3376 23.4943 19.3634 23.3734 19.4136C23.2524 19.4637 23.1425 19.5373 23.05 19.63C22.66 20.02 22.66 20.66 23.05 21.05L27 25V27H25L21.05 23.05C20.66 22.66 20.02 22.66 19.63 23.05C19.5373 23.1425 19.4637 23.2524 19.4136 23.3734C19.3634 23.4943 19.3376 23.624 19.3376 23.755C19.3376 23.886 19.3634 24.0157 19.4136 24.1366C19.4637 24.2576 19.5373 24.3675 19.63 24.46L22.17 27H19C18.45 27 18 27.45 18 28C18 28.55 18.45 29 19 29H22.17L19.63 31.54C19.5373 31.6325 19.4637 31.7424 19.4136 31.8634C19.3634 31.9843 19.3376 32.114 19.3376 32.245C19.3376 32.376 19.3634 32.5057 19.4136 32.6266C19.4637 32.7476 19.5373 32.8575 19.63 32.95C20.02 33.34 20.66 33.34 21.05 32.95L25 29H27V31L23.05 34.95C22.66 35.34 22.66 35.98 23.05 36.37C23.44 36.76 24.07 36.76 24.46 36.37L27 33.83V37C27 37.55 27.45 38 28 38C28.55 38 29 37.55 29 37V33.83L31.54 36.37C31.93 36.76 32.56 36.76 32.95 36.37C33.34 35.98 33.34 35.34 32.95 34.95L29 31V29H31L34.95 32.95C35.34 33.34 35.98 33.34 36.37 32.95C36.4627 32.8575 36.5363 32.7476 36.5864 32.6266C36.6366 32.5057 36.6624 32.376 36.6624 32.245C36.6624 32.114 36.6366 31.9843 36.5864 31.8634C36.5363 31.7424 36.4627 31.6325 36.37 31.54L33.83 29H37C37.55 29 38 28.55 38 28C38 27.45 37.55 27 37 27Z" fill="#1565C0"/>
<defs>
<filter id="filter0_d_121_482" x="0" y="0" width="56" height="56" filterUnits="userSpaceOnUse" color-interpolation-filters="sRGB">
<feFlood flood-opacity="0" result="BackgroundImageFix"/>
<feColorMatrix in="SourceAlpha" type="matrix" values="0 0 0 0 0 0 0 0 0 0 0 0 0 0 0 0 0 0 127 0" result="hardAlpha"/>
<feOffset/>
<feGaussianBlur stdDeviation="4"/>
<feComposite in2="hardAlpha" operator="out"/>
<feColorMatrix type="matrix" values="0 0 0 0 0 0 0 0 0 0 0 0 0 0 0 0 0 0 0.08 0"/>
<feBlend mode="normal" in2="BackgroundImageFix" result="effect1_dropShadow_121_482"/>
<feBlend mode="normal" in="SourceGraphic" in2="effect1_dropShadow_121_482" result="shape"/>
</filter>
</defs>
</svg>
