<svg width="14" height="15" viewBox="0 0 14 15" fill="none" xmlns="http://www.w3.org/2000/svg">
<path d="M7 12.2727C7.13845 12.2727 7.27379 12.2327 7.3889 12.1578C7.50401 12.0829 7.59373 11.9764 7.64672 11.8518C7.6997 11.7272 7.71356 11.5902 7.68655 11.4579C7.65954 11.3256 7.59287 11.2041 7.49497 11.1088C7.39708 11.0134 7.27235 10.9485 7.13656 10.9222C7.00078 10.8959 6.86003 10.9094 6.73212 10.961C6.60421 11.0126 6.49489 11.1 6.41797 11.2121C6.34105 11.3242 6.3 11.4561 6.3 11.5909C6.3 11.7717 6.37375 11.9452 6.50503 12.073C6.6363 12.2009 6.81435 12.2727 7 12.2727ZM10.5 12.2727C10.6384 12.2727 10.7738 12.2327 10.8889 12.1578C11.004 12.0829 11.0937 11.9764 11.1467 11.8518C11.1997 11.7272 11.2136 11.5902 11.1865 11.4579C11.1595 11.3256 11.0929 11.2041 10.995 11.1088C10.8971 11.0134 10.7724 10.9485 10.6366 10.9222C10.5008 10.8959 10.36 10.9094 10.2321 10.961C10.1042 11.0126 9.99489 11.1 9.91797 11.2121C9.84105 11.3242 9.8 11.4561 9.8 11.5909C9.8 11.7717 9.87375 11.9452 10.005 12.073C10.1363 12.2009 10.3143 12.2727 10.5 12.2727ZM10.5 9.54545C10.6384 9.54545 10.7738 9.50547 10.8889 9.43055C11.004 9.35563 11.0937 9.24914 11.1467 9.12456C11.1997 8.99997 11.2136 8.86288 11.1865 8.73062C11.1595 8.59836 11.0929 8.47687 10.995 8.38152C10.8971 8.28616 10.7724 8.22123 10.6366 8.19492C10.5008 8.16861 10.36 8.18211 10.2321 8.23372C10.1042 8.28532 9.99489 8.37271 9.91797 8.48484C9.84105 8.59696 9.8 8.72879 9.8 8.86364C9.8 9.04447 9.87375 9.21789 10.005 9.34575C10.1363 9.47362 10.3143 9.54545 10.5 9.54545ZM7 9.54545C7.13845 9.54545 7.27379 9.50547 7.3889 9.43055C7.50401 9.35563 7.59373 9.24914 7.64672 9.12456C7.6997 8.99997 7.71356 8.86288 7.68655 8.73062C7.65954 8.59836 7.59287 8.47687 7.49497 8.38152C7.39708 8.28616 7.27235 8.22123 7.13656 8.19492C7.00078 8.16861 6.86003 8.18211 6.73212 8.23372C6.60421 8.28532 6.49489 8.37271 6.41797 8.48484C6.34105 8.59696 6.3 8.72879 6.3 8.86364C6.3 9.04447 6.37375 9.21789 6.50503 9.34575C6.6363 9.47362 6.81435 9.54545 7 9.54545ZM11.9 1.36364H11.2V0.681818C11.2 0.500989 11.1263 0.327566 10.995 0.1997C10.8637 0.0718342 10.6857 0 10.5 0C10.3143 0 10.1363 0.0718342 10.005 0.1997C9.87375 0.327566 9.8 0.500989 9.8 0.681818V1.36364H4.2V0.681818C4.2 0.500989 4.12625 0.327566 3.99497 0.1997C3.8637 0.0718342 3.68565 0 3.5 0C3.31435 0 3.1363 0.0718342 3.00503 0.1997C2.87375 0.327566 2.8 0.500989 2.8 0.681818V1.36364H2.1C1.54305 1.36364 1.0089 1.57914 0.615076 1.96274C0.221249 2.34633 0 2.8666 0 3.40909V12.9545C0 13.497 0.221249 14.0173 0.615076 14.4009C1.0089 14.7845 1.54305 15 2.1 15H11.9C12.457 15 12.9911 14.7845 13.3849 14.4009C13.7788 14.0173 14 13.497 14 12.9545V3.40909C14 2.8666 13.7788 2.34633 13.3849 1.96274C12.9911 1.57914 12.457 1.36364 11.9 1.36364ZM12.6 12.9545C12.6 13.1354 12.5263 13.3088 12.395 13.4367C12.2637 13.5645 12.0857 13.6364 11.9 13.6364H2.1C1.91435 13.6364 1.7363 13.5645 1.60503 13.4367C1.47375 13.3088 1.4 13.1354 1.4 12.9545V6.81818H12.6V12.9545ZM12.6 5.45455H1.4V3.40909C1.4 3.22826 1.47375 3.05484 1.60503 2.92697C1.7363 2.79911 1.91435 2.72727 2.1 2.72727H2.8V3.40909C2.8 3.58992 2.87375 3.76334 3.00503 3.89121C3.1363 4.01907 3.31435 4.09091 3.5 4.09091C3.68565 4.09091 3.8637 4.01907 3.99497 3.89121C4.12625 3.76334 4.2 3.58992 4.2 3.40909V2.72727H9.8V3.40909C9.8 3.58992 9.87375 3.76334 10.005 3.89121C10.1363 4.01907 10.3143 4.09091 10.5 4.09091C10.6857 4.09091 10.8637 4.01907 10.995 3.89121C11.1263 3.76334 11.2 3.58992 11.2 3.40909V2.72727H11.9C12.0857 2.72727 12.2637 2.79911 12.395 2.92697C12.5263 3.05484 12.6 3.22826 12.6 3.40909V5.45455ZM3.5 9.54545C3.63845 9.54545 3.77378 9.50547 3.8889 9.43055C4.00401 9.35563 4.09373 9.24914 4.14672 9.12456C4.1997 8.99997 4.21356 8.86288 4.18655 8.73062C4.15954 8.59836 4.09287 8.47687 3.99497 8.38152C3.89708 8.28616 3.77235 8.22123 3.63656 8.19492C3.50078 8.16861 3.36003 8.18211 3.23212 8.23372C3.10421 8.28532 2.99489 8.37271 2.91797 8.48484C2.84105 8.59696 2.8 8.72879 2.8 8.86364C2.8 9.04447 2.87375 9.21789 3.00503 9.34575C3.1363 9.47362 3.31435 9.54545 3.5 9.54545ZM3.5 12.2727C3.63845 12.2727 3.77378 12.2327 3.8889 12.1578C4.00401 12.0829 4.09373 11.9764 4.14672 11.8518C4.1997 11.7272 4.21356 11.5902 4.18655 11.4579C4.15954 11.3256 4.09287 11.2041 3.99497 11.1088C3.89708 11.0134 3.77235 10.9485 3.63656 10.9222C3.50078 10.8959 3.36003 10.9094 3.23212 10.961C3.10421 11.0126 2.99489 11.1 2.91797 11.2121C2.84105 11.3242 2.8 11.4561 2.8 11.5909C2.8 11.7717 2.87375 11.9452 3.00503 12.073C3.1363 12.2009 3.31435 12.2727 3.5 12.2727Z" fill="black" fill-opacity="0.8"/>
</svg>
