<svg width="14" height="14" viewBox="0 0 14 14" fill="none" xmlns="http://www.w3.org/2000/svg">
<path d="M6.7986 13.6432L6.79154 13.6444L6.74598 13.6669L6.73314 13.6695L6.72415 13.6669L6.67859 13.6444C6.67174 13.6423 6.66661 13.6434 6.66318 13.6477L6.66062 13.6541L6.64971 13.9288L6.65292 13.9416L6.65933 13.9499L6.72608 13.9974L6.73571 14L6.74341 13.9974L6.81015 13.9499L6.81786 13.9397L6.82042 13.9288L6.80951 13.6547C6.8078 13.6479 6.80416 13.644 6.7986 13.6432ZM6.96868 13.5706L6.96033 13.5719L6.8416 13.6316L6.83518 13.638L6.83326 13.6451L6.84481 13.9211L6.84802 13.9288L6.85315 13.9333L6.98215 13.9929C6.99028 13.9951 6.99649 13.9934 7.00077 13.9878L7.00333 13.9788L6.98151 13.5848C6.97937 13.5771 6.97509 13.5724 6.96868 13.5706ZM6.5098 13.5719C6.50697 13.5702 6.50359 13.5697 6.50036 13.5704C6.49713 13.5711 6.4943 13.573 6.49247 13.5758L6.48862 13.5848L6.4668 13.9788C6.46722 13.9865 6.47086 13.9917 6.47771 13.9942L6.48733 13.9929L6.61633 13.9333L6.62275 13.9281L6.62532 13.9211L6.63623 13.6451L6.6343 13.6374L6.62789 13.631L6.5098 13.5719Z" fill="black" fill-opacity="0.6"/>
<path d="M7 0C10.8661 0 14 3.1339 14 7C14 10.8661 10.8661 14 7 14C3.1339 14 0 10.8661 0 7C0 3.1339 3.1339 0 7 0ZM7 2.8C6.81435 2.8 6.6363 2.87375 6.50503 3.00503C6.37375 3.1363 6.3 3.31435 6.3 3.5V7C6.30004 7.18564 6.37382 7.36365 6.5051 7.4949L8.6051 9.5949C8.73712 9.72241 8.91394 9.79297 9.09748 9.79137C9.28102 9.78978 9.45659 9.71616 9.58637 9.58637C9.71616 9.45659 9.78978 9.28102 9.79137 9.09748C9.79297 8.91394 9.72241 8.73712 9.5949 8.6051L7.7 6.7102V3.5C7.7 3.31435 7.62625 3.1363 7.49497 3.00503C7.3637 2.87375 7.18565 2.8 7 2.8Z" fill="black" fill-opacity="0.8"/>
</svg>
