<svg width="31" height="31" viewBox="0 0 31 31" fill="none" xmlns="http://www.w3.org/2000/svg">
<path d="M14.6263 5.2315V0H16.1722V5.2315H14.6263ZM23.1228 8.77018L22.0685 7.7143L25.7123 3.92363L26.8362 5.05681L23.1228 8.77018ZM25.567 16.1722V14.6263H30.8V16.1722H25.567ZM14.6263 30.8V25.5963H16.1722V30.8H14.6263ZM7.7344 8.72071L3.92363 5.08618L5.08618 3.99165L8.79801 7.67565L7.7344 8.72071ZM25.7045 26.8733L22.0685 23.0826L23.1151 22.0669L26.8068 25.6937L25.7045 26.8733ZM0 16.1722V14.6263H5.2315V16.1722H0ZM5.05526 26.8748L3.99165 25.7123L7.637 22.0685L8.19355 22.6065L8.77792 23.1537L5.05526 26.8748ZM15.4085 23.129C13.2627 23.129 11.4364 22.3782 9.92965 20.8765C8.42286 19.3749 7.66947 17.5517 7.66947 15.407C7.66947 13.2622 8.42028 11.4354 9.92192 9.92656C11.4236 8.41771 13.2467 7.66534 15.3915 7.66947C17.5362 7.67359 19.3625 8.42441 20.8703 9.92192C22.3782 11.4194 23.131 13.2426 23.129 15.3915C23.1269 17.5404 22.3761 19.3667 20.8765 20.8703C19.377 22.374 17.5553 23.1269 15.4085 23.129Z" fill="#1565C0"/>
</svg>
