<svg width="14" height="18" viewBox="0 0 14 18" fill="none" xmlns="http://www.w3.org/2000/svg">
<path d="M4.24414 7.20761C4.24414 6.47672 4.53449 5.77576 5.0513 5.25894C5.56812 4.74213 6.26907 4.45178 6.99996 4.45178C7.73085 4.45178 8.43181 4.74213 8.94862 5.25894C9.46544 5.77576 9.75579 6.47672 9.75579 7.20761C9.75579 7.93849 9.46544 8.63945 8.94862 9.15627C8.43181 9.67308 7.73085 9.96343 6.99996 9.96343C6.26907 9.96343 5.56812 9.67308 5.0513 9.15627C4.53449 8.63945 4.24414 7.93849 4.24414 7.20761Z" fill="black" fill-opacity="0.8"/>
<path fill-rule="evenodd" clip-rule="evenodd" d="M0.0247609 6.25529C0.165805 4.55071 0.942429 2.96142 2.20056 1.80272C3.45869 0.644014 5.1064 0.000556738 6.81681 0H7.18312C8.89352 0.000556738 10.5412 0.644014 11.7994 1.80272C13.0575 2.96142 13.8341 4.55071 13.9752 6.25529C14.1317 8.15843 13.5441 10.0481 12.3361 11.527L8.27188 16.4976C8.11784 16.6862 7.92381 16.8381 7.70383 16.9424C7.48385 17.0468 7.24343 17.1009 6.99996 17.1009C6.75649 17.1009 6.51607 17.0468 6.29609 16.9424C6.07612 16.8381 5.88209 16.6862 5.72804 16.4976L1.66469 11.527C0.456333 10.0482 -0.131518 8.15854 0.0247609 6.25529ZM6.99996 3.1798C5.93174 3.1798 4.90727 3.60415 4.15192 4.35949C3.39657 5.11484 2.97222 6.13931 2.97222 7.20754C2.97222 8.27576 3.39657 9.30023 4.15192 10.0556C4.90727 10.8109 5.93174 11.2353 6.99996 11.2353C8.06818 11.2353 9.09266 10.8109 9.848 10.0556C10.6034 9.30023 11.0277 8.27576 11.0277 7.20754C11.0277 6.13931 10.6034 5.11484 9.848 4.35949C9.09266 3.60415 8.06818 3.1798 6.99996 3.1798Z" fill="black" fill-opacity="0.8"/>
</svg>
