<svg width="35" height="35" viewBox="0 0 35 35" fill="none" xmlns="http://www.w3.org/2000/svg">
<g clip-path="url(#clip0_2037_2013)">
<path d="M30.3865 17.728C26.7837 18.7139 22.9368 18.2301 19.6902 16.3829C16.4435 14.5358 14.0623 11.476 13.069 7.87519C12.7633 6.72753 12.6067 5.54528 12.6029 4.35761C9.36376 5.59665 6.69615 7.98808 5.11186 11.0731C3.52756 14.1581 3.13816 17.7195 4.01836 21.074C5.01164 24.6749 7.39287 27.7346 10.6395 29.5818C13.8862 31.429 17.733 31.9127 21.3359 30.9269C27.717 29.217 31.913 23.482 31.873 17.2529C31.3879 17.4423 30.893 17.6057 30.3904 17.7424L30.3865 17.728Z" fill="#1565C0" stroke="#1565C0" stroke-width="0.140625" stroke-linecap="round" stroke-linejoin="round"/>
</g>
<path d="M25.6719 11.8221L25.4641 11.8369C25.5968 11.3127 25.6666 10.7744 25.6719 10.2336C25.6696 8.77221 25.1913 7.35132 24.3094 6.186C23.4275 5.02067 22.19 4.17434 20.7842 3.77507C19.3784 3.37581 17.8808 3.44535 16.518 3.97318C15.1553 4.501 14.0015 5.45837 13.2314 6.70041C12.5513 6.2918 11.7746 6.07167 10.9812 6.06264C10.1878 6.0536 9.40629 6.25599 8.717 6.649C8.02772 7.04202 7.45551 7.61148 7.05919 8.29887C6.66287 8.98625 6.45673 9.76677 6.46195 10.5602C6.46214 10.8039 6.48199 11.0472 6.52133 11.2876C5.35412 11.5157 4.3133 12.1694 3.60099 13.1217C2.88867 14.0741 2.55569 15.2572 2.6667 16.4413C2.7777 17.6254 3.32478 18.726 4.2017 19.5293C5.07862 20.3327 6.22279 20.7816 7.41205 20.7887H25.6719C26.8144 20.7229 27.8885 20.2226 28.6741 19.3905C29.4597 18.5583 29.8973 17.4572 29.8973 16.3128C29.8973 15.1684 29.4597 14.0673 28.6741 13.2351C27.8885 12.403 26.8144 11.9027 25.6719 11.8369V11.8221Z" fill="url(#paint0_linear_2037_2013)" stroke="#E6EFFC" stroke-width="0.125" stroke-miterlimit="10"/>
<defs>
<linearGradient id="paint0_linear_2037_2013" x1="10.3366" y1="5.72062" x2="20.9956" y2="24.1883" gradientUnits="userSpaceOnUse">
<stop stop-color="#F3F7FE"/>
<stop offset="0.5" stop-color="#F3F7FE"/>
<stop offset="1" stop-color="#DEEAFB"/>
</linearGradient>
<clipPath id="clip0_2037_2013">
<rect width="28.5774" height="28.5774" fill="white" transform="translate(0 7.39642) rotate(-15)"/>
</clipPath>
</defs>
</svg>
