<svg width="24" height="24" viewBox="0 0 24 24" fill="none" xmlns="http://www.w3.org/2000/svg">
<path d="M18.995 18.5747C15.2115 22.3583 9.05133 22.3583 5.26774 18.5747C1.48415 14.7911 1.48415 8.63101 5.26774 4.84742C5.55944 4.55572 5.86831 4.28117 6.19433 4.04094C6.40882 7.53283 7.88451 10.896 10.4155 13.427C12.9464 15.958 16.3096 17.4336 19.8015 17.6481C19.5613 17.9742 19.2867 18.283 18.995 18.5747ZM20.711 20.2906C22.2724 18.7292 23.3106 16.8331 23.8425 14.8426C19.7929 15.9236 15.3058 14.8855 12.1314 11.7111C8.95695 8.53663 7.91882 4.04952 8.99985 -2.83581e-05C7.00939 0.531904 5.11331 1.57003 3.55183 3.13151C-1.18409 7.86743 -1.18409 15.5547 3.55183 20.2906C8.28775 25.0266 15.975 25.0266 20.711 20.2906Z" fill="#1565C0"/>
</svg>
