<svg width="" height="" viewBox="0 0 14 14" fill="none" xmlns="http://www.w3.org/2000/svg">
<path d="M7 10.5C7.19833 10.5 7.3647 10.4328 7.4991 10.2984C7.6335 10.164 7.70046 9.99786 7.7 9.8C7.69953 9.60213 7.63233 9.436 7.4984 9.3016C7.36446 9.1672 7.19833 9.1 7 9.1C6.80166 9.1 6.63553 9.1672 6.5016 9.3016C6.36766 9.436 6.30046 9.60213 6.3 9.8C6.29953 9.99786 6.36673 10.1642 6.5016 10.2991C6.63646 10.434 6.8026 10.5009 7 10.5ZM7 7.7C7.19833 7.7 7.3647 7.6328 7.4991 7.4984C7.6335 7.364 7.70046 7.19786 7.7 7V4.2C7.7 4.00167 7.6328 3.83553 7.4984 3.7016C7.364 3.56767 7.19786 3.50047 7 3.5C6.80213 3.49953 6.636 3.56673 6.5016 3.7016C6.3672 3.83647 6.3 4.0026 6.3 4.2V7C6.3 7.19833 6.3672 7.3647 6.5016 7.4991C6.636 7.6335 6.80213 7.70046 7 7.7ZM7 14C6.03166 14 5.12166 13.8161 4.27 13.4484C3.41833 13.0807 2.6775 12.582 2.0475 11.9525C1.4175 11.323 0.918867 10.5821 0.551601 9.73C0.184334 8.87786 0.000467552 7.96786 8.86075e-07 7C-0.00046578 6.03213 0.183401 5.12213 0.551601 4.27C0.9198 3.41787 1.41843 2.67703 2.0475 2.0475C2.67657 1.41797 3.4174 0.919333 4.27 0.5516C5.1226 0.183867 6.0326 0 7 0C7.9674 0 8.87739 0.183867 9.72999 0.5516C10.5826 0.919333 11.3234 1.41797 11.9525 2.0475C12.5816 2.67703 13.0804 3.41787 13.4491 4.27C13.8178 5.12213 14.0014 6.03213 14 7C13.9986 7.96786 13.8147 8.87786 13.4484 9.73C13.0821 10.5821 12.5834 11.323 11.9525 11.9525C11.3216 12.582 10.5807 13.0809 9.72999 13.4491C8.87926 13.8173 7.96926 14.0009 7 14ZM7 12.6C8.56333 12.6 9.88749 12.0575 10.9725 10.9725C12.0575 9.8875 12.6 8.56333 12.6 7C12.6 5.43667 12.0575 4.1125 10.9725 3.0275C9.88749 1.9425 8.56333 1.4 7 1.4C5.43666 1.4 4.1125 1.9425 3.0275 3.0275C1.9425 4.1125 1.4 5.43667 1.4 7C1.4 8.56333 1.9425 9.8875 3.0275 10.9725C4.1125 12.0575 5.43666 12.6 7 12.6Z" fill="#FF9800"/>
</svg>
