<svg width="25" height="25" viewBox="0 0 25 25" fill="none" xmlns="http://www.w3.org/2000/svg">
<path d="M23.012 4.87007C23.0157 4.69325 23.0036 3.09573 21.4375 1.55755C19.8957 0.0436018 18.3406 0 18.1674 0H6.05096C5.76149 0 4.24269 0.0763032 2.77113 1.57693C1.25476 3.12237 1.21116 4.67387 1.21116 4.84464V8.47812H0V12.1116H1.21116V19.3786C1.21116 20.2676 1.70289 21.0415 2.42232 21.463V23.012C2.42232 23.3333 2.54992 23.6413 2.77706 23.8685C3.0042 24.0956 3.31226 24.2232 3.63348 24.2232H4.84464C5.16586 24.2232 5.47392 24.0956 5.70106 23.8685C5.9282 23.6413 6.0558 23.3333 6.0558 23.012V21.8009H18.1674V23.012C18.1674 23.3333 18.295 23.6413 18.5221 23.8685C18.7493 24.0956 19.0573 24.2232 19.3786 24.2232H20.5897C20.9109 24.2232 21.219 24.0956 21.4461 23.8685C21.6733 23.6413 21.8009 23.3333 21.8009 23.012V21.4654C22.1683 21.2547 22.4738 20.9508 22.6864 20.5844C22.899 20.2181 23.0113 19.8022 23.012 19.3786V12.1116H24.2232V8.47812H23.012V4.87007ZM8.47812 2.42232H15.7451V4.84464H8.47812V2.42232ZM5.45022 19.3786C4.96823 19.3784 4.50605 19.1868 4.16534 18.8458C3.82464 18.5049 3.63332 18.0426 3.63348 17.5606C3.63364 17.0786 3.82526 16.6164 4.1662 16.2757C4.50713 15.935 4.96944 15.7437 5.45143 15.7439C5.93342 15.744 6.39561 15.9357 6.73631 16.2766C7.07702 16.6175 7.26833 17.0798 7.26817 17.5618C7.26801 18.0438 7.07639 18.506 6.73546 18.8467C6.39452 19.1874 5.93221 19.3787 5.45022 19.3786ZM10.9004 13.3228H3.63348V7.26696H10.9004V13.3228ZM18.773 19.3786C18.291 19.3784 17.8288 19.1868 17.4881 18.8458C17.1474 18.5049 16.9561 18.0426 16.9562 17.5606C16.9564 17.0786 17.148 16.6164 17.489 16.2757C17.8299 15.935 18.2922 15.7437 18.7742 15.7439C19.2562 15.744 19.7184 15.9357 20.0591 16.2766C20.3998 16.6175 20.5911 17.0798 20.5909 17.5618C20.5908 18.0438 20.3992 18.506 20.0582 18.8467C19.7173 19.1874 19.255 19.3787 18.773 19.3786ZM20.5897 13.3228H13.3228V7.26696H20.5897V13.3228Z" fill="black" fill-opacity="0.5"/>
</svg>
