<svg width="" height="" viewBox="0 0 15 16" fill="none" xmlns="http://www.w3.org/2000/svg">
<path d="M12.6304 0.0119934L15.0003 2.38191L13.1937 4.18937L10.8237 1.81945L12.6304 0.0119934ZM3.9502 11.0621H6.32011L12.0766 5.3056L9.70673 2.93568L3.9502 8.69221V11.0621Z" fill="" fill-opacity=""/>
<path d="M12.6396 13.432H4.07468C4.05414 13.432 4.03281 13.4399 4.01227 13.4399C3.9862 13.4399 3.96013 13.4328 3.93327 13.432H1.57995V2.37243H6.98889L8.56883 0.79248H1.57995C0.708605 0.79248 0 1.5003 0 2.37243V13.432C0 14.3042 0.708605 15.012 1.57995 15.012H12.6396C13.0586 15.012 13.4605 14.8455 13.7568 14.5492C14.053 14.2529 14.2195 13.8511 14.2195 13.432V6.58456L12.6396 8.1645V13.432Z" fill="" fill-opacity=""/>
</svg>
