<svg width="" height="" viewBox="0 0 22 20" fill="none" xmlns="http://www.w3.org/2000/svg">
<path d="M12.522 0.00387718C7.00436 -0.151648 2.48405 4.39191 2.48405 10.0019H0.543668C0.0558638 10.0019 -0.182618 10.6018 0.164265 10.9462L3.18865 14.0567C3.40545 14.2789 3.7415 14.2789 3.9583 14.0567L6.98268 10.9462C7.31873 10.6018 7.08025 10.0019 6.59244 10.0019H4.65206C4.65206 5.66945 8.09921 2.17012 12.3485 2.22567C16.381 2.28121 19.774 5.75832 19.8282 9.89085C19.8824 14.2345 16.4678 17.7782 12.2401 17.7782C10.4949 17.7782 8.8797 17.1672 7.60057 16.1341C7.16697 15.7897 6.55992 15.823 6.16968 16.223C5.71439 16.6895 5.74691 17.4783 6.2564 17.8782C7.90409 19.2113 9.97455 20 12.2401 20C17.7144 20 22.148 15.3676 21.9962 9.71311C21.8553 4.503 17.606 0.148294 12.522 0.00387718ZM11.9691 5.55836C11.5247 5.55836 11.1561 5.93606 11.1561 6.39153V10.4796C11.1561 10.8684 11.3621 11.235 11.6873 11.435L15.0694 13.4902C15.4596 13.7234 15.9583 13.5901 16.1859 13.2013C16.4136 12.8014 16.2835 12.2904 15.9041 12.0571L12.7821 10.1575V6.38042C12.7821 5.93606 12.4136 5.55836 11.9691 5.55836Z" fill="black"/>
</svg>
