<svg width="" height="" viewBox="0 0 13 16" fill="none" xmlns="http://www.w3.org/2000/svg">
<path d="M6.5 0C7.57744 0 8.61075 0.421427 9.37262 1.17157C10.1345 1.92172 10.5625 2.93913 10.5625 4V6.4C11.209 6.4 11.829 6.65286 12.2861 7.10294C12.7432 7.55303 13 8.16348 13 8.8V13.6C13 14.2365 12.7432 14.847 12.2861 15.2971C11.829 15.7471 11.209 16 10.5625 16H2.4375C1.79103 16 1.17105 15.7471 0.713927 15.2971C0.256807 14.847 0 14.2365 0 13.6V8.8C0 8.16348 0.256807 7.55303 0.713927 7.10294C1.17105 6.65286 1.79103 6.4 2.4375 6.4V4C2.4375 2.93913 2.86551 1.92172 3.62738 1.17157C4.38925 0.421427 5.42256 0 6.5 0ZM6.5 9.6C6.09003 9.59987 5.69516 9.75233 5.39455 10.0268C5.09395 10.3013 4.90981 10.6775 4.87906 11.08L4.875 11.2C4.875 11.5164 4.9703 11.8258 5.14886 12.0889C5.32742 12.352 5.58121 12.5571 5.87814 12.6782C6.17507 12.7993 6.5018 12.831 6.81702 12.7693C7.13224 12.7075 7.42179 12.5551 7.64905 12.3314C7.87631 12.1076 8.03108 11.8225 8.09378 11.5121C8.15648 11.2018 8.1243 10.8801 8.0013 10.5877C7.87831 10.2953 7.67003 10.0455 7.4028 9.86965C7.13557 9.69384 6.82139 9.6 6.5 9.6ZM6.5 1.6C5.85353 1.6 5.23355 1.85286 4.77643 2.30294C4.31931 2.75303 4.0625 3.36348 4.0625 4V6.4H8.9375V4C8.9375 3.36348 8.68069 2.75303 8.22357 2.30294C7.76645 1.85286 7.14647 1.6 6.5 1.6Z" fill="" fill-opacity=""/>
</svg>
