<svg width="" height="" viewBox="0 0 30 33" fill="none" xmlns="http://www.w3.org/2000/svg">
<path d="M13.3333 0C5.96667 0 0 0.825 0 6.6V23.1C0.00375273 23.792 0.154015 24.4755 0.441089 25.1064C0.728164 25.7374 1.14567 26.3017 1.66667 26.763V29.7C1.66667 30.1376 1.84226 30.5573 2.15482 30.8667C2.46738 31.1762 2.89131 31.35 3.33333 31.35H5C5.44203 31.35 5.86595 31.1762 6.17851 30.8667C6.49107 30.5573 6.66667 30.1376 6.66667 29.7V28.05H16.6667C15.6702 26.2774 15.0999 24.3012 15 22.275C15.0148 20.8138 15.3827 19.3774 16.0727 18.0857C16.7628 16.794 17.7551 15.6845 18.9667 14.85H3.33333V6.6H23.3333V13.2C23.6108 13.1828 23.8892 13.1828 24.1667 13.2C25.0133 13.2018 25.8552 13.324 26.6667 13.563V6.6C26.6667 0.825 20.7 0 13.3333 0ZM5.83333 19.8C6.32779 19.8 6.81114 19.9452 7.22226 20.2171C7.63338 20.4891 7.95381 20.8756 8.14303 21.3279C8.33225 21.7801 8.38176 22.2777 8.2853 22.7578C8.18883 23.238 7.95073 23.679 7.6011 24.0251C7.25147 24.3712 6.80601 24.6069 6.32106 24.7024C5.83611 24.7979 5.33344 24.7489 4.87662 24.5616C4.41981 24.3743 4.02936 24.057 3.75466 23.65C3.47996 23.243 3.33333 22.7645 3.33333 22.275C3.33333 21.6186 3.59672 20.9891 4.06557 20.5249C4.53441 20.0608 5.17029 19.8 5.83333 19.8ZM24.1667 16.5C22.6249 16.5172 21.1513 17.1311 20.061 18.2104C18.9708 19.2897 18.3507 20.7487 18.3333 22.275C18.3333 26.565 24.1667 33 24.1667 33C24.1667 33 30 26.565 30 22.275C29.9827 20.7487 29.3625 19.2897 28.2723 18.2104C27.1821 17.1311 25.7084 16.5172 24.1667 16.5ZM24.1667 24.42C23.6362 24.42 23.1275 24.2114 22.7525 23.8401C22.3774 23.4688 22.1667 22.9651 22.1667 22.44C22.1667 21.9149 22.3774 21.4112 22.7525 21.0399C23.1275 20.6686 23.6362 20.46 24.1667 20.46C24.6855 20.4947 25.1741 20.7145 25.5418 21.0786C25.9096 21.4426 26.1316 21.9263 26.1667 22.44C26.1785 22.7031 26.1349 22.9658 26.0385 23.2114C25.9422 23.4569 25.7953 23.6799 25.6072 23.8661C25.4191 24.0524 25.1938 24.1978 24.9458 24.2932C24.6978 24.3885 24.4325 24.4317 24.1667 24.42Z" fill="#1565C0"/>
</svg>
