<svg width="" height="" viewBox="0 0 17 16" fill="none" xmlns="http://www.w3.org/2000/svg">
<path d="M0.589844 2.31142C0.589844 1.8124 0.766564 1.40072 1.11999 1.07638C1.47341 0.752016 1.93288 0.589844 2.49837 0.589844C3.05376 0.589844 3.50311 0.749516 3.84645 1.06889C4.19987 1.39823 4.37659 1.82737 4.37659 2.35633C4.37659 2.83537 4.20493 3.23457 3.8616 3.55394C3.50817 3.88329 3.04366 4.04796 2.46807 4.04796H2.45293C1.89753 4.04796 1.44818 3.88329 1.10484 3.55394C0.761505 3.2246 0.589844 2.81042 0.589844 2.31142ZM0.786755 15.4103V5.41025H4.14939V15.4103H0.786755ZM6.01247 15.4103H9.3751V9.82646C9.3751 9.47714 9.4155 9.20768 9.49628 9.01807C9.63765 8.67874 9.85224 8.3918 10.14 8.15728C10.4278 7.92274 10.7888 7.80548 11.223 7.80548C12.354 7.80548 12.9195 8.55898 12.9195 10.066V15.4103H16.2821V9.67676C16.2821 8.19969 15.9287 7.07943 15.2218 6.31595C14.515 5.55247 13.5809 5.17073 12.4197 5.17073C11.117 5.17073 10.1022 5.72462 9.3751 6.83242V6.86236H9.35996L9.3751 6.83242V5.41025H6.01247C6.03266 5.72961 6.04276 6.72263 6.04276 8.38932C6.04276 10.056 6.03266 12.3963 6.01247 15.4103Z" fill="#FAFAFA"/>
</svg>
