<svg width="" height="" viewBox="0 0 20 28" fill="none" xmlns="http://www.w3.org/2000/svg">
<path d="M10.0001 13.329C9.1027 13.329 8.24211 12.9755 7.60758 12.3462C6.97306 11.717 6.61659 10.8636 6.61659 9.97372C6.61659 9.08385 6.97306 8.23042 7.60758 7.60119C8.24211 6.97195 9.1027 6.61845 10.0001 6.61845C10.8974 6.61845 11.758 6.97195 12.3925 7.60119C13.027 8.23042 13.3835 9.08385 13.3835 9.97372C13.3835 10.4143 13.296 10.8506 13.126 11.2577C12.9559 11.6648 12.7067 12.0347 12.3925 12.3462C12.0783 12.6578 11.7053 12.905 11.2948 13.0736C10.8843 13.2422 10.4444 13.329 10.0001 13.329ZM10.0001 0.578979C7.48747 0.578979 5.07781 1.56878 3.30114 3.33063C1.52448 5.09249 0.526367 7.48208 0.526367 9.97372C0.526367 17.0198 10.0001 27.4211 10.0001 27.4211C10.0001 27.4211 19.4737 17.0198 19.4737 9.97372C19.4737 7.48208 18.4756 5.09249 16.699 3.33063C14.9223 1.56878 12.5126 0.578979 10.0001 0.578979Z" fill=""/>
</svg>
