<svg width="" height="" viewBox="0 0 19 19" fill="none" xmlns="http://www.w3.org/2000/svg">
<path d="M14.0921 3.73418C13.8852 3.73418 13.6829 3.79554 13.5109 3.91049C13.3388 4.02544 13.2047 4.18883 13.1256 4.37999C13.0464 4.57115 13.0257 4.7815 13.066 4.98443C13.1064 5.18736 13.206 5.37377 13.3523 5.52008C13.4986 5.66638 13.685 5.76602 13.888 5.80639C14.0909 5.84675 14.3013 5.82603 14.4924 5.74685C14.6836 5.66767 14.847 5.53359 14.9619 5.36155C15.0769 5.18951 15.1382 4.98724 15.1382 4.78033C15.1382 4.50288 15.028 4.23678 14.8318 4.04059C14.6356 3.8444 14.3695 3.73418 14.0921 3.73418ZM18.1023 5.84392C18.0854 5.12059 17.9499 4.40494 17.7013 3.72546C17.4796 3.14409 17.1346 2.61766 16.69 2.18239C16.2583 1.73553 15.7307 1.3927 15.1469 1.17982C14.4693 0.923657 13.7528 0.785085 13.0285 0.770081C12.1044 0.717773 11.808 0.717773 9.43669 0.717773C7.06541 0.717773 6.769 0.717773 5.8449 0.770081C5.12057 0.785085 4.40412 0.923657 3.72644 1.17982C3.1438 1.39485 2.61659 1.73739 2.18336 2.18239C1.73651 2.61408 1.39367 3.14174 1.1808 3.72546C0.924634 4.40315 0.786061 5.1196 0.771058 5.84392C0.71875 6.76803 0.71875 7.06444 0.71875 9.43572C0.71875 11.807 0.71875 12.1034 0.771058 13.0275C0.786061 13.7518 0.924634 14.4683 1.1808 15.146C1.39367 15.7297 1.73651 16.2573 2.18336 16.689C2.61659 17.134 3.1438 17.4766 3.72644 17.6916C4.40412 17.9478 5.12057 18.0863 5.8449 18.1014C6.769 18.1537 7.06541 18.1537 9.43669 18.1537C11.808 18.1537 12.1044 18.1537 13.0285 18.1014C13.7528 18.0863 14.4693 17.9478 15.1469 17.6916C15.7307 17.4787 16.2583 17.1359 16.69 16.689C17.1366 16.2554 17.4819 15.7285 17.7013 15.146C17.9499 14.4665 18.0854 13.7508 18.1023 13.0275C18.1023 12.1034 18.1546 11.807 18.1546 9.43572C18.1546 7.06444 18.1546 6.76803 18.1023 5.84392ZM16.5331 12.9229C16.5267 13.4763 16.4265 14.0246 16.2367 14.5444C16.0975 14.9238 15.8739 15.2666 15.5828 15.547C15.3001 15.8351 14.958 16.0582 14.5803 16.2008C14.0604 16.3907 13.5121 16.4909 12.9587 16.4972C12.0869 16.5408 11.7644 16.5496 9.47156 16.5496C7.17875 16.5496 6.85618 16.5496 5.98439 16.4972C5.40978 16.508 4.83762 16.4195 4.29311 16.2357C3.93199 16.0858 3.60557 15.8633 3.33413 15.5819C3.04477 15.3018 2.824 14.9587 2.68901 14.5793C2.47616 14.052 2.35811 13.4913 2.34029 12.9229C2.34029 12.0511 2.28798 11.7285 2.28798 9.43572C2.28798 7.1429 2.28798 6.82033 2.34029 5.94854C2.34419 5.38279 2.44747 4.82213 2.64542 4.29213C2.79889 3.92415 3.03447 3.59614 3.33413 3.33316C3.599 3.03341 3.92633 2.79534 4.29311 2.63572C4.82451 2.44396 5.38459 2.34374 5.94952 2.33931C6.82131 2.33931 7.14387 2.287 9.43669 2.287C11.7295 2.287 12.0521 2.287 12.9239 2.33931C13.4773 2.34566 14.0256 2.44588 14.5454 2.63572C14.9416 2.78275 15.2971 3.02179 15.5828 3.33316C15.8685 3.60095 16.0918 3.92836 16.2367 4.29213C16.4304 4.82299 16.5307 5.38342 16.5331 5.94854C16.5767 6.82033 16.5854 7.1429 16.5854 9.43572C16.5854 11.7285 16.5767 12.0511 16.5331 12.9229ZM9.43669 4.96341C8.55253 4.96513 7.68871 5.2289 6.95439 5.72136C6.22007 6.21383 5.6482 6.91291 5.31104 7.73027C4.97388 8.54763 4.88656 9.44658 5.06011 10.3136C5.23365 11.1805 5.66029 11.9766 6.28609 12.6012C6.9119 13.2258 7.70881 13.6509 8.57611 13.8227C9.44341 13.9946 10.3422 13.9055 11.1589 13.5667C11.9756 13.228 12.6736 12.6548 13.1646 11.9195C13.6556 11.1842 13.9177 10.3199 13.9177 9.43572C13.9189 8.84735 13.8037 8.26455 13.5788 7.72086C13.3539 7.17716 13.0237 6.6833 12.6073 6.26766C12.1908 5.85202 11.6963 5.52282 11.1522 5.29899C10.6081 5.07516 10.0251 4.96111 9.43669 4.96341ZM9.43669 12.3388C8.86252 12.3388 8.30124 12.1685 7.82383 11.8495C7.34642 11.5305 6.97433 11.0771 6.7546 10.5467C6.53487 10.0162 6.47738 9.4325 6.5894 8.86935C6.70142 8.30621 6.97791 7.78893 7.38391 7.38293C7.78991 6.97693 8.30719 6.70044 8.87033 6.58842C9.43347 6.47641 10.0172 6.5339 10.5477 6.75362C11.0781 6.97335 11.5315 7.34545 11.8505 7.82285C12.1695 8.30026 12.3398 8.86154 12.3398 9.43572C12.3398 9.81695 12.2647 10.1945 12.1188 10.5467C11.9729 10.8989 11.7591 11.2189 11.4895 11.4885C11.2199 11.7581 10.8999 11.9719 10.5477 12.1178C10.1954 12.2637 9.81793 12.3388 9.43669 12.3388Z" fill="#FAFAFA"/>
</svg>
