<svg width="" height="" viewBox="0 0 24 25" fill="none" xmlns="http://www.w3.org/2000/svg">
<path d="M19.3683 24.6316C18.3449 24.6316 17.475 24.2747 16.7587 23.5609C16.0423 22.8471 15.6841 21.9803 15.6841 20.9606C15.6841 20.8382 15.7148 20.5527 15.7762 20.104L7.14902 15.0869C6.82153 15.3928 6.44288 15.6327 6.01305 15.8064C5.58323 15.9802 5.1227 16.0667 4.63148 16.0659C3.60808 16.0659 2.7382 15.7089 2.02183 14.9951C1.30545 14.2813 0.947266 13.4145 0.947266 12.3948C0.947266 11.3751 1.30545 10.5083 2.02183 9.79447C2.7382 9.08066 3.60808 8.72375 4.63148 8.72375C5.1227 8.72375 5.58323 8.81063 6.01305 8.98439C6.44288 9.15816 6.82153 9.39759 7.14902 9.7027L15.7762 4.68559C15.7353 4.54283 15.7099 4.40537 15.7001 4.27321C15.6902 4.14105 15.6849 3.99299 15.6841 3.82901C15.6841 2.80927 16.0423 1.9425 16.7587 1.22868C17.475 0.514867 18.3449 0.157959 19.3683 0.157959C20.3917 0.157959 21.2616 0.514867 21.978 1.22868C22.6943 1.9425 23.0525 2.80927 23.0525 3.82901C23.0525 4.84875 22.6943 5.71552 21.978 6.42934C21.2616 7.14316 20.3917 7.50006 19.3683 7.50006C18.8771 7.50006 18.4166 7.41318 17.9867 7.23942C17.5569 7.06566 17.1783 6.82622 16.8508 6.52112L8.22358 11.5382C8.26452 11.681 8.29031 11.8189 8.30095 11.9518C8.31159 12.0848 8.3165 12.2325 8.31569 12.3948C8.31487 12.5571 8.30996 12.7052 8.30095 12.839C8.29194 12.9728 8.26615 13.1102 8.22358 13.2514L16.8508 18.2685C17.1783 17.9626 17.5569 17.7231 17.9867 17.5502C18.4166 17.3772 18.8771 17.2904 19.3683 17.2895C20.3917 17.2895 21.2616 17.6464 21.978 18.3603C22.6943 19.0741 23.0525 19.9409 23.0525 20.9606C23.0525 21.9803 22.6943 22.8471 21.978 23.5609C21.2616 24.2747 20.3917 24.6316 19.3683 24.6316Z" fill="#1565C0"/>
</svg>
