<svg width="" height="" viewBox="0 0 16 16" fill="none" xmlns="http://www.w3.org/2000/svg">
<path d="M8.18414 0.470589C9.20702 0.470589 10.188 0.876926 10.9113 1.60021C11.6346 2.3235 12.0409 3.30449 12.0409 4.32737C12.0409 5.35025 11.6346 6.33123 10.9113 7.05452C10.188 7.77781 9.20702 8.18414 8.18414 8.18414C7.16125 8.18414 6.18027 7.77781 5.45698 7.05452C4.7337 6.33123 4.32736 5.35025 4.32736 4.32737C4.32736 3.30449 4.7337 2.3235 5.45698 1.60021C6.18027 0.876926 7.16125 0.470589 8.18414 0.470589ZM8.18414 15.8977C8.18414 15.8977 15.8977 15.8977 15.8977 13.9693C15.8977 11.6552 12.1373 9.14834 8.18414 9.14834C4.23094 9.14834 0.470581 11.6552 0.470581 13.9693C0.470581 15.8977 8.18414 15.8977 8.18414 15.8977Z" fill=""/>
</svg>
