<svg width="16" height="16" viewBox="0 0 16 16" fill="none" xmlns="http://www.w3.org/2000/svg">
<path d="M13.6755 3.724L13.3108 4.08867C13.1252 4.27432 12.8734 4.37862 12.6108 4.37862C12.3482 4.37862 12.0964 4.27432 11.9107 4.08867C11.7251 3.90302 11.6208 3.65122 11.6208 3.38867C11.6208 3.12612 11.7251 2.87432 11.9107 2.68867L12.2754 2.324L9.95129 0L7.01777 2.93333L6.88443 3.33633L6.4814 3.46967L0 9.95067L2.32548 12.276L2.69017 11.9113C2.87583 11.7257 3.12764 11.6214 3.39021 11.6214C3.65278 11.6214 3.90459 11.7257 4.09026 11.9113C4.27592 12.097 4.38022 12.3488 4.38022 12.6113C4.38022 12.8739 4.27592 13.1257 4.09026 13.3113L3.72557 13.676L6.04971 16L12.5301 9.52L12.6635 9.117L13.0665 8.98367L16 6.05033L13.6755 3.724ZM6.72309 3.905L7.45213 3.176L8.5522 4.276L7.82282 5.005L6.72309 3.905ZM8.15651 5.33833L8.88589 4.609L9.96996 5.693L9.24058 6.42233L8.15651 5.33833ZM9.57526 6.757L10.3046 6.02767L11.3887 7.11167L10.6607 7.84267L9.57526 6.757ZM12.0944 9.27567L10.9944 8.17567L11.7234 7.44633L12.8235 8.54633L12.0944 9.27567Z" fill="black"/>
</svg>
