<svg width="15" height="16" viewBox="0 0 15 16" fill="none" xmlns="http://www.w3.org/2000/svg">
<path d="M7.5 0C5.9422 0 4.4482 0.621051 3.34667 1.72653C2.24514 2.83201 1.62631 4.33136 1.62631 5.89474V8.86568C1.62643 8.99632 1.59627 9.12519 1.5382 9.24211L0.097472 12.1331C0.0270938 12.2743 -0.00613812 12.4312 0.000932481 12.589C0.00800308 12.7467 0.0551414 12.9001 0.13787 13.0344C0.2206 13.1687 0.336172 13.2796 0.473612 13.3565C0.611052 13.4334 0.765796 13.4737 0.923145 13.4737H14.0769C14.2342 13.4737 14.3889 13.4334 14.5264 13.3565C14.6638 13.2796 14.7794 13.1687 14.8621 13.0344C14.9449 12.9001 14.992 12.7467 14.9991 12.589C15.0061 12.4312 14.9729 12.2743 14.9025 12.1331L13.4626 9.24211C13.4043 9.12526 13.3738 8.99638 13.3737 8.86568V5.89474C13.3737 4.33136 12.7549 2.83201 11.6533 1.72653C10.5518 0.621051 9.0578 0 7.5 0ZM7.5 16C6.97921 16.0003 6.47116 15.8384 6.04586 15.5368C5.62056 15.2352 5.29895 14.8086 5.12535 14.3158H9.87465C9.70105 14.8086 9.37944 15.2352 8.95414 15.5368C8.52884 15.8384 8.02079 16.0003 7.5 16Z" fill="black"/>
</svg>
