<svg width="16" height="16" viewBox="0 0 16 16" fill="none" xmlns="http://www.w3.org/2000/svg">
<path d="M15.0082 7.99999L15.8925 6.47175C15.9988 6.28789 16.0277 6.06934 15.9728 5.86417C15.918 5.65899 15.784 5.48399 15.6001 5.37764L14.0703 4.49338V2.73126C14.0703 2.51883 13.9859 2.3151 13.8357 2.16489C13.6855 2.01468 13.4818 1.9303 13.2693 1.9303H11.508L10.6245 0.40126C10.5184 0.217304 10.3435 0.0830456 10.1384 0.0280117C10.0367 0.000780187 9.93073 -0.00616219 9.82642 0.00758096C9.72211 0.0213241 9.62152 0.0554836 9.53042 0.108108L8.00057 0.99237L6.47073 0.107307C6.28676 0.00109746 6.06814 -0.0276848 5.86296 0.0272915C5.65777 0.0822679 5.48283 0.2165 5.37661 0.400459L4.49234 1.9303H2.73102C2.51859 1.9303 2.31486 2.01468 2.16465 2.16489C2.01444 2.3151 1.93005 2.51883 1.93005 2.73126V4.49258L0.400206 5.37684C0.309079 5.4295 0.229224 5.4996 0.165205 5.58314C0.101187 5.66668 0.0542616 5.76202 0.0271105 5.86371C-4.06368e-05 5.96539 -0.00688459 6.07143 0.00696975 6.17577C0.0208241 6.2801 0.055105 6.38068 0.107853 6.47175L0.99212 7.99999L0.107853 9.52822C0.00211654 9.71227 -0.0265715 9.93064 0.0280435 10.1357C0.0826586 10.3409 0.216147 10.5161 0.399405 10.6231L1.92925 11.5074V13.2687C1.92925 13.4811 2.01364 13.6849 2.16385 13.8351C2.31406 13.9853 2.51779 14.0697 2.73022 14.0697H4.49234L5.37661 15.5995C5.44752 15.7207 5.54877 15.8214 5.67039 15.8916C5.79201 15.9618 5.92981 15.9992 6.07025 16C6.20961 16 6.34818 15.9632 6.47153 15.8919L7.99977 15.0076L9.52962 15.8919C9.71349 15.9981 9.93203 16.027 10.1372 15.9722C10.3424 15.9174 10.5174 15.7833 10.6237 15.5995L11.5072 14.0697H13.2685C13.481 14.0697 13.6847 13.9853 13.8349 13.8351C13.9851 13.6849 14.0695 13.4811 14.0695 13.2687V11.5074L15.5993 10.6231C15.6905 10.5705 15.7703 10.5004 15.8343 10.4168C15.8984 10.3333 15.9453 10.238 15.9724 10.1363C15.9996 10.0346 16.0064 9.92854 15.9926 9.82421C15.9787 9.71988 15.9444 9.6193 15.8917 9.52822L15.0082 7.99999ZM5.99736 3.98717C6.31611 3.98727 6.62176 4.114 6.84708 4.33946C7.07239 4.56493 7.19891 4.87066 7.19881 5.18941C7.1987 5.50816 7.07198 5.81381 6.84651 6.03913C6.62104 6.26444 6.31531 6.39096 5.99656 6.39086C5.67781 6.39075 5.37215 6.26402 5.14684 6.03856C4.92152 5.8131 4.795 5.50736 4.79511 5.18861C4.79521 4.86986 4.92194 4.56421 5.1474 4.3389C5.37287 4.11358 5.67861 3.98706 5.99736 3.98717ZM6.23765 11.6764L4.9561 10.7161L9.7619 4.30835L11.0434 5.26871L6.23765 11.6764ZM10.0022 11.9968C9.84436 11.9967 9.68809 11.9656 9.54229 11.9052C9.3965 11.8447 9.26403 11.7561 9.15247 11.6445C9.0409 11.5329 8.95242 11.4003 8.89207 11.2545C8.83172 11.1087 8.80069 10.9524 8.80074 10.7945C8.80079 10.6367 8.83193 10.4804 8.89238 10.3347C8.95282 10.1889 9.0414 10.0564 9.15304 9.94483C9.26468 9.83327 9.39719 9.74478 9.54303 9.68443C9.68887 9.62408 9.84516 9.59305 10.003 9.5931C10.3217 9.59321 10.6274 9.71993 10.8527 9.9454C11.078 10.1709 11.2045 10.4766 11.2044 10.7953C11.2043 11.1141 11.0776 11.4197 10.8521 11.6451C10.6267 11.8704 10.3209 11.9969 10.0022 11.9968Z" fill="black"/>
</svg>
